<svg width="27" height="10" viewBox="0 0 27 10" fill="none" xmlns="http://www.w3.org/2000/svg">
<path d="M0.07497 5.04787C0.119502 5.16272 0.186297 5.26819 0.271845 5.35723L4.02184 9.10723C4.19763 9.28418 4.43785 9.38497 4.68748 9.38497C4.93711 9.38497 5.17732 9.28418 5.35312 9.10723C5.53008 8.93145 5.63086 8.69122 5.63086 8.44159C5.63086 8.19196 5.53008 7.95175 5.35312 7.77595L3.19687 5.62909H25.7812C26.2992 5.62909 26.7187 5.20957 26.7187 4.69159C26.7187 4.17361 26.2992 3.75409 25.7812 3.75409H3.19687L5.35312 1.60723C5.7211 1.23925 5.7211 0.643965 5.35312 0.275985C4.98514 -0.091995 4.38985 -0.091995 4.02187 0.275985L0.271875 4.02598C0.186327 4.11505 0.119532 4.22052 0.075 4.33534C0.026952 4.44784 0.001173 4.56855 0 4.69159C0.0011718 4.81464 0.0269532 4.93534 0.075 5.04784L0.07497 5.04787Z" fill="#545F7D"/>
</svg>
