<svg width="15" height="16" viewBox="0 0 15 16" fill="none" xmlns="http://www.w3.org/2000/svg">
<path d="M14.352 1.76H12.0638V0.368128C12.0638 0.16 11.9038 0 11.6957 0H10.0164C9.80822 0 9.64822 0.16 9.64822 0.368128V1.76H5.0719V0.368128C5.0719 0.16 4.9119 0 4.70378 0H3.02378C2.81565 0 2.65565 0.16 2.65565 0.368128V1.76H0.368128C0.176256 1.76 0 1.92 0 2.12813V14.8481C0 15.0563 0.16 15.2163 0.368128 15.2163H14.3518C14.5437 15.2163 14.7199 15.0563 14.7199 14.8481V2.12813C14.7199 1.92 14.5437 1.76 14.3518 1.76H14.352ZM10.3683 0.736256H11.3283V2.8481H10.3683V0.736256ZM3.37648 0.736256H4.33648V2.8481H3.37648V0.736256ZM13.984 14.4638H0.73648V5.10378H13.9846L13.984 14.4638Z" fill="#545F7D"/>
<path d="M2.56005 12.8163H4.27188C4.36813 12.8163 4.44814 12.7363 4.44814 12.6401V10.9119C4.44814 10.8157 4.36814 10.7357 4.27188 10.7357L2.56005 10.7363C2.4638 10.7363 2.38379 10.8163 2.38379 10.9125V12.6244C2.38379 12.7363 2.46379 12.8163 2.56005 12.8163V12.8163Z" fill="#545F7D"/>
<path d="M6.49645 12.8163H8.20829C8.30454 12.8163 8.38455 12.7363 8.38455 12.6401L8.38392 10.9119C8.38392 10.8157 8.30392 10.7357 8.20767 10.7357L6.49647 10.7363C6.40022 10.7363 6.32021 10.8163 6.32021 10.9125V12.6244C6.30396 12.7363 6.38396 12.8163 6.49647 12.8163L6.49645 12.8163Z" fill="#545F7D"/>
<path d="M10.4166 12.8163H12.1285C12.2247 12.8163 12.3047 12.7363 12.3047 12.6401L12.3041 10.9119C12.3041 10.8157 12.2241 10.7357 12.1278 10.7357L10.4166 10.7363C10.3204 10.7363 10.2404 10.8163 10.2404 10.9125V12.6244C10.2241 12.7363 10.3041 12.8163 10.4166 12.8163L10.4166 12.8163Z" fill="#545F7D"/>
<path d="M2.56005 8.8637H4.27188C4.36813 8.8637 4.44814 8.7837 4.44814 8.68744V6.97624C4.44814 6.87999 4.36814 6.79999 4.27188 6.79999H2.56005C2.4638 6.79999 2.38379 6.87999 2.38379 6.97624V8.68808C2.38379 8.78371 2.46379 8.86371 2.56005 8.86371V8.8637Z" fill="#545F7D"/>
<path d="M6.49645 8.8637H8.20829C8.30454 8.8637 8.38455 8.7837 8.38455 8.68744L8.38392 6.97624C8.38392 6.87999 8.30392 6.79999 8.20767 6.79999H6.49647C6.40022 6.79999 6.32021 6.87999 6.32021 6.97624V8.68808C6.30396 8.78371 6.38396 8.86371 6.49647 8.86371L6.49645 8.8637Z" fill="#545F7D"/>
<path d="M10.4166 8.8637H12.1285C12.2247 8.8637 12.3047 8.7837 12.3047 8.68744L12.3041 6.97624C12.3041 6.87999 12.2241 6.79999 12.1278 6.79999H10.4166C10.3204 6.79999 10.2404 6.87999 10.2404 6.97624V8.68808C10.2241 8.78371 10.3041 8.86371 10.4166 8.86371L10.4166 8.8637Z" fill="#545F7D"/>
</svg>
