<svg width="4" height="15" viewBox="0 0 4 15" fill="none" xmlns="http://www.w3.org/2000/svg">
<path d="M1.66667 3.33333C2.58889 3.33333 3.33333 2.58889 3.33333 1.66667C3.33333 0.744444 2.58889 0 1.66667 0C0.744444 0 0 0.744444 0 1.66667C0 2.58889 0.744444 3.33333 1.66667 3.33333ZM1.66667 5.55556C0.744444 5.55556 0 6.3 0 7.22222C0 8.14444 0.744444 8.88889 1.66667 8.88889C2.58889 8.88889 3.33333 8.14444 3.33333 7.22222C3.33333 6.3 2.58889 5.55556 1.66667 5.55556ZM1.66667 11.1111C0.744444 11.1111 0 11.8556 0 12.7778C0 13.7 0.744444 14.4444 1.66667 14.4444C2.58889 14.4444 3.33333 13.7 3.33333 12.7778C3.33333 11.8556 2.58889 11.1111 1.66667 11.1111Z" fill="#545F7D"/>
</svg>
